<?xml version="1.0" encoding="UTF-8"?>
<svg xmlns="http://www.w3.org/2000/svg" xmlns:xlink="http://www.w3.org/1999/xlink" width="15px" height="15px" viewBox="0 0 15 15" version="1.1">
<g id="surface1">
<path style=" stroke:none;fill-rule:nonzero;fill:rgb(0%,0%,0%);fill-opacity:1;" d="M 3.300781 1.199219 C 2.144531 1.199219 1.199219 2.144531 1.199219 3.300781 L 1.199219 11.699219 C 1.199219 12.855469 2.144531 13.800781 3.300781 13.800781 L 11.699219 13.800781 C 12.855469 13.800781 13.800781 12.855469 13.800781 11.699219 L 13.800781 3.300781 C 13.800781 2.144531 12.855469 1.199219 11.699219 1.199219 Z M 3.300781 1.800781 L 11.699219 1.800781 C 12.527344 1.800781 13.199219 2.472656 13.199219 3.300781 L 13.199219 11.699219 C 13.199219 12.527344 12.527344 13.199219 11.699219 13.199219 L 3.300781 13.199219 C 2.472656 13.199219 1.800781 12.527344 1.800781 11.699219 L 1.800781 3.300781 C 1.800781 2.472656 2.472656 1.800781 3.300781 1.800781 Z M 3.300781 1.800781 "/>
</g>
</svg>
